<?xml version="1.0" standalone="no"?>
<!DOCTYPE svg PUBLIC "-//W3C//DTD SVG 20010904//EN"
 "http://www.w3.org/TR/2001/REC-SVG-20010904/DTD/svg10.dtd">
<svg version="1.0" xmlns="http://www.w3.org/2000/svg"
 width="700.000000pt" height="700.000000pt" viewBox="0 0 700.000000 700.000000"
 preserveAspectRatio="xMidYMid meet">
<metadata>
Created by potrace 1.14, written by Peter Selinger 2001-2017
</metadata>
<g transform="translate(0.000000,700.000000) scale(0.100000,-0.100000)"
fill="#000000" stroke="none">
<path d="M2864 6411 c-17 -11 -36 -33 -42 -50 -6 -16 -48 -671 -93 -1455 l-82
-1425 27 -55 c15 -31 39 -64 54 -74 15 -11 839 -327 1832 -703 1298 -492 1816
-684 1844 -683 46 0 82 35 91 87 9 55 225 2730 225 2790 0 65 -22 116 -67 160
-22 21 -390 164 -1564 608 -2013 762 -2165 819 -2181 819 -7 0 -27 -9 -44 -19z
m1508 -882 c684 -259 1403 -531 1598 -605 195 -74 362 -141 371 -150 9 -8 24
-33 34 -55 18 -39 17 -51 -74 -1177 -51 -625 -96 -1141 -98 -1145 -3 -5 -15
-7 -27 -5 -11 3 -523 195 -1136 427 -613 233 -1311 497 -1550 588 -239 90
-445 171 -458 179 -12 8 -32 34 -44 58 l-21 43 66 1139 c36 627 69 1147 72
1157 4 9 11 17 15 17 5 0 568 -212 1252 -471z"/>
<path d="M4050 5202 c-55 -27 -64 -68 -42 -198 l18 -105 -25 -13 c-14 -8 -42
-19 -63 -25 -38 -12 -56 -37 -39 -54 7 -7 30 -3 69 11 32 12 61 22 64 22 3 0
13 -42 22 -93 29 -160 69 -191 167 -128 57 37 465 418 491 460 27 42 18 76
-24 90 -36 12 -459 51 -548 51 -32 0 -69 -7 -90 -18z"/>
<path d="M5180 4569 c0 -375 2 -424 17 -449 9 -16 26 -33 37 -39 23 -12 946
-321 958 -321 5 0 8 21 8 48 l0 47 -460 153 -460 154 0 398 0 398 -47 16 c-26
9 -48 16 -50 16 -2 0 -3 -189 -3 -421z"/>
<path d="M3530 4784 c-239 -102 -283 -127 -296 -166 -10 -31 15 -87 41 -94 16
-4 116 23 287 76 314 99 323 104 314 193 -13 128 -26 128 -346 -9z"/>
<path d="M5620 4435 l0 -333 89 -30 c49 -17 92 -28 95 -24 9 8 7 635 -2 649
-5 7 -47 26 -95 42 l-87 30 0 -334z"/>
<path d="M5372 4458 l3 -273 93 -32 92 -32 0 277 0 278 -83 27 c-46 15 -89 27
-95 27 -9 0 -12 -65 -10 -272z"/>
<path d="M4485 4361 c-23 -5 -31 -12 -33 -31 -3 -31 101 -325 124 -351 10 -11
30 -19 50 -19 23 0 37 -6 44 -19 19 -37 12 -51 -24 -51 -35 0 -66 -21 -66 -44
0 -8 7 -33 15 -56 28 -80 14 -96 -24 -25 -30 57 -119 141 -176 166 -25 11 -68
23 -95 26 -48 6 -50 5 -50 -19 0 -13 16 -71 35 -128 19 -57 35 -105 35 -106 0
-2 -12 -4 -27 -6 -20 -2 -29 -9 -31 -25 -4 -25 25 -44 59 -40 20 2 27 -9 61
-103 21 -58 46 -111 56 -118 22 -17 86 -8 123 18 40 29 62 96 57 170 -6 78 12
80 42 4 28 -67 54 -87 111 -83 40 3 44 1 56 -28 13 -32 13 -32 -21 -39 -19 -3
-37 -12 -40 -20 -5 -12 32 -131 98 -314 20 -56 39 -70 90 -70 88 0 145 12 151
31 8 25 -102 343 -126 365 -11 10 -34 17 -52 16 -28 -1 -35 3 -45 30 -6 18
-10 33 -9 35 2 1 37 5 78 9 41 4 88 12 105 19 35 15 64 66 64 117 0 45 -39
126 -81 166 -60 60 -83 67 -195 64 -100 -2 -101 -2 -113 24 -14 31 -7 41 29
46 18 2 26 10 28 28 3 31 -101 325 -124 351 -14 15 -30 19 -83 18 -36 -1 -79
-4 -96 -8z"/>
<path d="M5860 4196 l0 -174 91 -31 c66 -22 91 -27 95 -18 2 7 3 87 2 177 l-3
165 -75 27 c-119 43 -110 55 -110 -146z"/>
<path d="M4157 3773 c-15 -14 -5 -91 17 -139 21 -45 57 -84 77 -84 20 0 14 33
-12 66 -22 28 -29 47 -29 81 0 64 -27 103 -53 76z"/>
<path d="M2460 3257 c-19 -7 -529 -258 -1134 -557 -1000 -496 -1100 -547
-1114 -576 -17 -38 -11 -73 21 -109 17 -20 417 -176 1832 -716 996 -380 1834
-695 1862 -700 110 -21 93 -28 1286 562 725 358 1120 558 1136 576 19 22 22
34 18 66 -3 23 -15 49 -29 62 -13 13 -140 67 -303 128 -154 57 -975 367 -1825
688 l-1545 583 -85 3 c-53 2 -98 -2 -120 -10z m538 -1378 c279 -105 517 -197
529 -205 14 -9 20 -20 16 -30 -7 -19 -635 -334 -667 -334 -12 0 -256 89 -542
198 -447 171 -519 202 -522 220 -3 19 35 40 315 181 175 88 328 160 341 160
13 1 251 -85 530 -190z"/>
</g>
</svg>
